# xmcd
# 
# Track frame offsets:
#     150
#     10952
#     27467
#     51595
#     64272
#     79665
#     100692
#     113247
#     135952
#     152647
# 
# Disc length: 2334
# 
# Revision: 20
# Processed by: cddbd v1.5.2PL0 Copyright (c) Steve Scherf et al.
# Submitted via: fre:ac v1.0.17
# 
DISCID=7c091c0a
DTITLE=Stevie Ray Vaughan and Double Trouble - Texas Flood
DYEAR=1983
DGENRE=Blues
TTITLE0=Love Struck Baby
TTITLE1=Pride And Joy
TTITLE2=Texas Flood
TTITLE3=Tell Me
TTITLE4=Testify
TTITLE5=Rude Mood
TTITLE6=Mary Had A Little Lamb
TTITLE7=Dirty Pool
TTITLE8=I'm Cryin'
TTITLE9=Lenny
EXTD=YEAR: 1983
EXTT0=
EXTT1=
EXTT2=
EXTT3=
EXTT4=
EXTT5=
EXTT6=
EXTT7=
EXTT8=
EXTT9=
PLAYORDER=
